<?xml version="1.0" encoding="UTF-8"?>
<svg width="25px" height="25px" viewBox="0 0 25 25" version="1.1" xmlns="http://www.w3.org/2000/svg" xmlns:xlink="http://www.w3.org/1999/xlink">
    <!-- Generator: Sketch 55.2 (78181) - https://sketchapp.com -->
    <title>phone-call copy 7</title>
    <desc>Created with Sketch.</desc>
    <g id="Page-1" stroke="none" stroke-width="1" fill="none" fill-rule="evenodd">
        <g id="Group-11" transform="translate(-13.000000, -13.000000)" fill="#D12420" fill-rule="nonzero">
            <g id="Group-16">
                <g id="phone-call-copy-7" transform="translate(13.000000, 13.000000)">
                    <path d="M20.2035185,15.3064516 C19.6796796,14.7634409 19.0478328,14.4731183 18.3781831,14.4731183 C17.7139338,14.4731183 17.0766866,14.7580645 16.5312461,15.3010753 L14.8247196,16.9946237 C14.6843092,16.9193548 14.5438988,16.8494624 14.4088887,16.7795699 C14.2144743,16.6827957 14.0308607,16.5913978 13.8742491,16.4946237 C12.2757305,15.483871 10.8230228,14.1666667 9.42971949,12.4623656 C8.75466943,11.6129032 8.30103579,10.8978495 7.97161136,10.172043 C8.4144442,9.7688172 8.82487464,9.34946237 9.22450427,8.94623656 C9.37571549,8.79569892 9.5269267,8.63978495 9.67813792,8.48924731 C10.812222,7.36021505 10.812222,5.89784946 9.67813792,4.7688172 L8.20382858,3.30107527 C8.03641617,3.1344086 7.86360335,2.96236559 7.70159134,2.79032258 C7.37756731,2.45698925 7.03734208,2.11290323 6.68631605,1.79032258 C6.1624772,1.27419355 5.53603074,1 4.87718188,1 C4.21833303,1 3.58108577,1.27419355 3.04104572,1.79032258 C3.03564532,1.79569892 3.03564532,1.79569892 3.03024492,1.80107527 L1.19410875,3.64516129 C0.502857492,4.33333333 0.108628257,5.17204301 0.0222218492,6.14516129 C-0.107387762,7.71505376 0.357046679,9.17741935 0.713473111,10.1344086 C1.58833799,12.483871 2.89523491,14.6612903 4.84477948,16.9946237 C7.21015489,19.8064516 10.0561659,22.0268817 13.307207,23.5913978 C14.5492992,24.1774194 16.2072221,24.8709677 18.0595595,24.9892473 C18.1729679,24.9946237 18.2917767,25 18.3997847,25 C19.6472772,25 20.6949549,24.5537634 21.5158158,23.6666667 C21.5212162,23.655914 21.532017,23.6505376 21.5374174,23.6397849 C21.8182382,23.3010753 22.1422622,22.9946237 22.4824875,22.6666667 C22.7147047,22.4462366 22.9523223,22.2150538 23.1845395,21.9731183 C23.7191792,21.4193548 24,20.7741935 24,20.1129032 C24,19.4462366 23.7137788,18.8064516 23.1683383,18.2688172 L20.2035185,15.3064516 Z M22.1368618,20.9677419 C22.1314614,20.9677419 22.1314614,20.9731183 22.1368618,20.9677419 C21.9262462,21.1935484 21.7102302,21.3978495 21.478013,21.6236559 C21.1269869,21.9569892 20.7705605,22.3064516 20.4357357,22.6989247 C19.8902952,23.2795699 19.2476476,23.5537634 18.4051851,23.5537634 C18.3241791,23.5537634 18.2377727,23.5537634 18.1567667,23.5483871 C16.5528477,23.4462366 15.0623372,22.8225806 13.9444543,22.2903226 C10.8878276,20.8172043 8.20382858,18.7258065 5.97346318,16.0752688 C4.13192662,13.8655914 2.90063531,11.8225806 2.08517483,9.62903226 C1.58293759,8.29032258 1.39932397,7.24731183 1.48032998,6.26344086 C1.53433398,5.6344086 1.77735201,5.11290323 2.22558525,4.66666667 L4.06712181,2.83333333 C4.33174144,2.58602151 4.61256226,2.4516129 4.88798269,2.4516129 C5.22820792,2.4516129 5.50362834,2.65591398 5.67644116,2.82795699 C5.68184156,2.83333333 5.68724196,2.83870968 5.69264236,2.84408602 C6.02206679,3.15053763 6.33529002,3.46774194 6.66471445,3.80645161 C6.83212686,3.97849462 7.00493968,4.15053763 7.17775249,4.32795699 L8.65206182,5.79569892 C9.22450427,6.3655914 9.22450427,6.89247312 8.65206182,7.46236559 C8.49545021,7.61827957 8.344239,7.77419355 8.18762738,7.92473118 C7.73399374,8.38709677 7.3019617,8.8172043 6.83212686,9.23655914 C6.82132606,9.24731183 6.81052526,9.25268817 6.80512486,9.26344086 C6.34069042,9.72580645 6.42709682,10.1774194 6.52430403,10.483871 C6.52970443,10.5 6.53510483,10.516129 6.54050523,10.5322581 C6.92393367,11.4569892 7.46397372,12.327957 8.28483459,13.3655914 L8.29023499,13.3709677 C9.78074552,15.1989247 11.3522621,16.6236559 13.0857906,17.7150538 C13.307207,17.8548387 13.5340239,17.9677419 13.7500399,18.0752688 C13.9444543,18.172043 14.1280679,18.2634409 14.2846795,18.3602151 C14.3062811,18.3709677 14.3278827,18.3870968 14.3494843,18.3978495 C14.533098,18.4892473 14.7059108,18.5322581 14.884124,18.5322581 C15.3323572,18.5322581 15.613178,18.2526882 15.7049849,18.1612903 L17.5519218,16.3225806 C17.7355354,16.1397849 18.0271571,15.9193548 18.3673823,15.9193548 C18.7022071,15.9193548 18.9776275,16.1290323 19.14504,16.311828 C19.1504404,16.3172043 19.1504404,16.3172043 19.1558408,16.3225806 L22.1314614,19.2849462 C22.6877027,19.8333333 22.6877027,20.3978495 22.1368618,20.9677419 Z" id="Shape"></path>
                    <path d="M13.6225649,6.68808933 C15.0904254,6.96543767 16.4238254,7.74705571 17.4883044,8.94469625 C18.5527834,10.1423368 19.2418934,11.6425391 19.4940069,13.2940224 C19.5556346,13.7100449 19.8749783,14 20.2391422,14 C20.2839623,14 20.32318,13.9936966 20.3680001,13.9873933 C20.7825867,13.9117528 21.0571102,13.4705168 20.98988,13.0040673 C20.6873438,11.0058986 19.8469657,9.18422435 18.5639884,7.74075233 C17.2810111,6.29728031 15.6618826,5.35177463 13.8858834,5.01139258 C13.4712969,4.93575212 13.0847229,5.24461731 13.0118901,5.70476342 C12.9390574,6.16490952 13.2079784,6.61244888 13.6225649,6.68808933 Z" id="Path"></path>
                    <path d="M24.9880919,10.2359948 C24.4731521,7.67951606 23.0498352,5.35321832 20.8627875,3.50197506 C18.6757397,1.65073181 15.9274653,0.445954451 12.9072565,0.0100797164 C12.4848901,-0.0535873797 12.0856671,0.191286067 12.0104512,0.548801299 C11.9410211,0.911214 12.2245273,1.24913936 12.6526795,1.31280645 C15.3488813,1.6997065 17.8078636,2.78204713 19.7634777,4.43249416 C21.7190919,6.08783866 22.9919768,8.16926296 23.4490583,10.4514835 C23.5127025,10.7747164 23.8424954,11 24.2185751,11 C24.2648618,11 24.3053627,10.9951025 24.3516494,10.9902051 C24.7740158,10.9363329 25.0633078,10.5935101 24.9880919,10.2359948 Z" id="Path"></path>
                </g>
            </g>
        </g>
    </g>
</svg>