<svg width="25" height="25" viewBox="0 0 25 25" fill="none" xmlns="http://www.w3.org/2000/svg">
<path d="M1 22H16V4H1V22ZM16.3462 23H0.65385C0.29292 23 0 22.6554 0 22.2308V3.76923C0 3.34462 0.29292 3 0.65385 3H16.3462C16.7071 3 17 3.34462 17 3.76923V22.2308C17 22.6554 16.7071 23 16.3462 23Z" fill="#63666A"/>
<path d="M11.5 4C11.224 4 11 3.776 11 3.5C11 2.121 9.878 1 8.5 1C7.122 1 6 2.121 6 3.5C6 3.776 5.776 4 5.5 4C5.224 4 5 3.776 5 3.5C5 1.57 6.57 0 8.5 0C10.43 0 12 1.57 12 3.5C12 3.776 11.776 4 11.5 4Z" fill="#63666A"/>
<path d="M7 14H10V11H7V14Z" fill="#D12420"/>
</svg>
