<?xml version="1.0" encoding="UTF-8"?>
<svg width="25px" height="25px" viewBox="0 0 25 25" version="1.1" xmlns="http://www.w3.org/2000/svg" xmlns:xlink="http://www.w3.org/1999/xlink">
    <!-- Generator: Sketch 54.1 (76490) - https://sketchapp.com -->
    <title>Chat-Color</title>
    <desc>Created with Sketch.</desc>
    <g id="Chat-Color" stroke="none" stroke-width="1" fill="none" fill-rule="evenodd">
        <g id="Group-13" transform="translate(3.000000, 7.000000)" fill="#63666A">
            <g id="Group-3">
                <path d="M5.4216,0.789473684 C2.8728,0.789473684 0.8,3.05210526 0.8,5.83342105 C0.8,8.61473684 2.8728,10.8773684 5.4216,10.8773684 L5.604,10.8773684 C5.8112,10.8773684 5.984,11.0336842 6.0024,11.2365789 L6.2208,13.6097368 L8.372,11.0218421 C8.448,10.9310526 8.5608,10.8773684 8.6808,10.8773684 L14.5784,10.8773684 C17.1272,10.8773684 19.2,8.61473684 19.2,5.83342105 C19.2,3.05210526 17.1272,0.789473684 14.5784,0.789473684 L5.4216,0.789473684 Z M5.9104,15 C5.8712,15 5.832,14.9944737 5.7928,14.9826316 C5.6384,14.9352632 5.5272,14.8002632 5.512,14.6407895 L5.2384,11.6636842 C2.3336,11.5594737 0,8.98421053 0,5.83342105 C0,2.61631579 2.432,0 5.4216,0 L14.5784,0 C17.568,0 20,2.61631579 20,5.83342105 C20,9.04973684 17.568,11.6668421 14.5784,11.6668421 L8.8704,11.6668421 L6.22,14.8555263 C6.1424,14.9486842 6.028,15 5.9104,15 L5.9104,15 Z" id="Fill-1"></path>
            </g>
        </g>
        <rect id="Rectangle" stroke="#D12420" fill="#D8D8D8" x="8.5" y="12.5" width="1" height="1"></rect>
        <rect id="Rectangle" stroke="#D12420" fill="#D8D8D8" x="12.5" y="12.5" width="1" height="1"></rect>
        <rect id="Rectangle" stroke="#D12420" fill="#D8D8D8" x="16.5" y="12.5" width="1" height="1"></rect>
    </g>
</svg>