<?xml version="1.0" encoding="UTF-8"?>
<svg width="25px" height="25px" viewBox="0 0 25 25" version="1.1" xmlns="http://www.w3.org/2000/svg" xmlns:xlink="http://www.w3.org/1999/xlink">
    <!-- Generator: Sketch 54.1 (76490) - https://sketchapp.com -->
    <title>CloseCard-Color</title>
    <desc>Created with Sketch.</desc>
    <g id="CloseCard-Color" stroke="none" stroke-width="1" fill="none" fill-rule="evenodd">
        <g id="Group-7" transform="translate(3.000000, 3.000000)">
            <path d="M13.1457975,13.8540041 L5.14624188,5.85422627 C4.95125271,5.65823172 4.95125271,5.34224049 5.14624188,5.14624594 C5.34223099,4.95125135 5.65821343,4.95125135 5.85420254,5.14624594 L13.8537581,13.1460237 C14.0487473,13.3420183 14.0487473,13.6580095 13.8537581,13.8540041 C13.7557636,13.9510014 13.6277707,14 13.4997778,14 C13.3717849,14 13.243792,13.9510014 13.1457975,13.8540041 Z" id="Fill-1" fill="#63666A"></path>
            <path d="M5.50022221,14 C5.37222932,14 5.24423643,13.9510014 5.14624188,13.8540041 C4.95125271,13.6580095 4.95125271,13.3420183 5.14624188,13.1460237 L13.1457975,5.14624594 C13.3417866,4.95125135 13.657769,4.95125135 13.8537581,5.14624594 C14.0487473,5.34224049 14.0487473,5.65823172 13.8537581,5.85422627 L5.85420254,13.8540041 C5.75620799,13.9510014 5.6282151,14 5.50022221,14" id="Fill-3" fill="#D12420"></path>
            <path d="M9.5,1 C4.813,1 1,4.813 1,9.5 C1,14.187 4.813,18 9.5,18 C14.187,18 18,14.187 18,9.5 C18,4.813 14.187,1 9.5,1 M9.5,19 C4.262,19 0,14.738 0,9.5 C0,4.262 4.262,0 9.5,0 C14.738,0 19,4.262 19,9.5 C19,14.738 14.738,19 9.5,19" id="Fill-5" fill="#D12420"></path>
        </g>
    </g>
</svg>