<?xml version="1.0" encoding="UTF-8"?>
<svg width="25px" height="25px" viewBox="0 0 25 25" version="1.1" xmlns="http://www.w3.org/2000/svg" xmlns:xlink="http://www.w3.org/1999/xlink">
    <!-- Generator: Sketch 54.1 (76490) - https://sketchapp.com -->
    <title>Expand-Color Copy</title>
    <desc>Created with Sketch.</desc>
    <g id="Expand-Color-Copy" stroke="none" stroke-width="1" fill="none" fill-rule="evenodd">
        <g id="Group-5" transform="translate(1.000000, 1.000000)" fill="#D12420">
            <path d="M22.5,12 L0.5,12 C0.224,12 0,11.776 0,11.5 C0,11.224 0.224,11 0.5,11 L22.5,11 C22.776,11 23,11.224 23,11.5 C23,11.776 22.776,12 22.5,12" id="Fill-1"></path>
            <path d="M11.5,23 C11.224,23 11,22.776 11,22.5 L11,0.5 C11,0.224 11.224,0 11.5,0 C11.776,0 12,0.224 12,0.5 L12,22.5 C12,22.776 11.776,23 11.5,23" id="Fill-3"></path>
        </g>
    </g>
</svg>