<?xml version="1.0" encoding="UTF-8"?>
<svg width="25px" height="25px" viewBox="0 0 25 25" version="1.1" xmlns="http://www.w3.org/2000/svg" xmlns:xlink="http://www.w3.org/1999/xlink">
    <!-- Generator: Sketch 54.1 (76490) - https://sketchapp.com -->
    <title>HamburgerMenu-BW</title>
    <desc>Created with Sketch.</desc>
    <g id="HamburgerMenu-BW" stroke="none" stroke-width="1" fill="none" fill-rule="evenodd">
        <g id="Group-7" transform="translate(2.000000, 2.000000)" fill="#FFFFFF">
            <path d="M20.5,1 L0.5,1 C0.224,1 0,0.776 0,0.5 C0,0.224 0.224,0 0.5,0 L20.5,0 C20.776,0 21,0.224 21,0.5 C21,0.776 20.776,1 20.5,1" id="Fill-1"></path>
            <path d="M20.5,11 L0.5,11 C0.224,11 0,10.776 0,10.5 C0,10.224 0.224,10 0.5,10 L20.5,10 C20.776,10 21,10.224 21,10.5 C21,10.776 20.776,11 20.5,11" id="Fill-3"></path>
            <path d="M20.5,21 L0.5,21 C0.224,21 0,20.776 0,20.5 C0,20.224 0.224,20 0.5,20 L20.5,20 C20.776,20 21,20.224 21,20.5 C21,20.776 20.776,21 20.5,21" id="Fill-5"></path>
        </g>
    </g>
</svg>