<?xml version="1.0" encoding="UTF-8"?>
<svg width="25px" height="25px" viewBox="0 0 25 25" version="1.1" xmlns="http://www.w3.org/2000/svg" xmlns:xlink="http://www.w3.org/1999/xlink">
    <!-- Generator: Sketch 54.1 (76490) - https://sketchapp.com -->
    <title>Intensity-Color Copy</title>
    <desc>Created with Sketch.</desc>
    <g id="Intensity-Color-Copy" stroke="none" stroke-width="1" fill="none" fill-rule="evenodd">
        <g id="Group-6" transform="translate(1.000000, 7.000000)" fill="#D12420">
            <g id="Group-3">
                <path d="M5.38324665,14.0019968 L12.8082467,14.0019968 C14.7572467,12.2209968 16.0502467,8.25099683 16.0642467,8.20999683 C16.1822467,7.77599683 16.4112467,7.51399683 16.7372467,7.44899683 C17.0882467,7.38499683 17.3972467,7.59099683 17.5662467,7.81199683 L17.5772467,7.82799683 C17.6212467,7.84699683 17.6622467,7.87299683 17.6972467,7.90899683 C18.2842467,8.50599683 19.0632467,8.83499683 19.8902467,8.83499683 C21.6052467,8.83499683 23.0002467,7.40899683 23.0002467,5.65699683 C23.0002467,3.90299683 21.6052467,2.47699683 19.8902467,2.47699683 C19.4012467,2.47699683 18.9152467,2.60599683 18.4452467,2.85899683 C18.3412467,2.91599683 18.2222467,2.93299683 18.1112467,2.90999683 C17.8752467,2.93499683 17.7132467,2.85099683 17.6202467,2.78499683 C17.2462467,2.52699683 17.2402467,2.02699683 17.2472467,1.87999683 C17.2472467,1.59199683 17.1702467,1.36199683 17.0172467,1.21999683 C16.7602467,0.979996826 16.3412467,1.00399683 16.3342467,1.00299683 L2.33224665,1.00399683 C1.82624665,1.00399683 1.45824665,1.11899683 1.23724665,1.34599683 C1.00624665,1.58299683 0.999246651,1.88699683 1.00024665,1.88999683 C1.00024665,8.46899683 4.62124665,13.1009968 5.38324665,14.0019968 M12.9972467,15.0019968 L5.15624665,15.0019968 C5.01724665,15.0019968 4.88424665,14.9439968 4.78924665,14.8419968 C4.59424665,14.6319968 0.000246650566,9.59299683 0.000246650566,1.90299683 C-0.00175334943,1.84399683 -0.00375334943,1.18799683 0.520246651,0.647996826 C0.937246651,0.220996826 1.54624665,0.00399682632 2.33224665,0.00399682632 L16.2972467,0.00399682632 C16.3422467,-0.00300317368 17.1172467,-0.0490031737 17.6912467,0.480996826 C17.9382467,0.706996826 18.2302467,1.12599683 18.2462467,1.84199683 C18.7792467,1.59999683 19.3302467,1.47699683 19.8902467,1.47699683 C22.1562467,1.47699683 24.0002467,3.35199683 24.0002467,5.65699683 C24.0002467,7.96099683 22.1562467,9.83499683 19.8902467,9.83499683 C18.8832467,9.83499683 17.9322467,9.46899683 17.1832467,8.79999683 C17.0982467,8.78299683 17.0202467,8.74599683 16.9592467,8.68499683 C16.6562467,9.56599683 15.3262467,13.1829968 13.3202467,14.8839968 C13.2302467,14.9599968 13.1152467,15.0019968 12.9972467,15.0019968" id="Fill-1"></path>
            </g>
            <path d="M19.5,5 C19.224,5 19,5.225 19,5.5 C19,5.775 19.224,6 19.5,6 C19.776,6 20,5.775 20,5.5 C20,5.225 19.776,5 19.5,5 M19.5,7 C18.673,7 18,6.327 18,5.5 C18,4.673 18.673,4 19.5,4 C20.327,4 21,4.673 21,5.5 C21,6.327 20.327,7 19.5,7" id="Fill-4"></path>
        </g>
        <g id="Group-7" transform="translate(8.000000, 11.000000)" fill="#FFFFFF" stroke="#D12420">
            <polygon id="Fill-5" points="0 5 5 5 5 0 0 0"></polygon>
        </g>
    </g>
</svg>