<?xml version="1.0" encoding="UTF-8"?>
<svg width="25px" height="25px" viewBox="0 0 25 25" version="1.1" xmlns="http://www.w3.org/2000/svg" xmlns:xlink="http://www.w3.org/1999/xlink">
    <!-- Generator: Sketch 54.1 (76490) - https://sketchapp.com -->
    <title>Locator-Color</title>
    <desc>Created with Sketch.</desc>
    <g id="Locator-Color" stroke="none" stroke-width="1" fill="none" fill-rule="evenodd">
        <g id="Group-4" transform="translate(7.000000, 3.000000)">
            <path d="M5.77777778,8.68965517 C4.18454936,8.68965517 2.88888889,7.39055794 2.88888889,5.79310345 C2.88888889,4.19564896 4.18454936,2.89655172 5.77777778,2.89655172 C7.3710062,2.89655172 8.66666667,4.19564896 8.66666667,5.79310345 C8.66666667,7.39055794 7.3710062,8.68965517 5.77777778,8.68965517" id="Path" stroke="#D12420" stroke-linecap="square"></path>
            <path d="M5.49638914,17.2149157 L0.711747737,8.54955781 C0.234835373,7.66141291 0,6.72053764 0,5.77449273 C0,2.58999181 2.59146523,0 5.77777778,0 C8.96409032,0 11.5555556,2.58999181 11.5555556,5.77449273 C11.5555556,6.72157157 11.3196857,7.66244684 10.8727743,8.49682744 L6.05916642,17.2149157 C6.00226798,17.3172746 5.89467821,17.3793103 5.77777778,17.3793103 C5.66087735,17.3793103 5.55225306,17.3172746 5.49638914,17.2149157 Z" id="Path" stroke="#63666A"></path>
        </g>
    </g>
</svg>