<?xml version="1.0" encoding="UTF-8"?>
<svg width="25px" height="25px" viewBox="0 0 25 25" version="1.1" xmlns="http://www.w3.org/2000/svg" xmlns:xlink="http://www.w3.org/1999/xlink">
    <!-- Generator: Sketch 54.1 (76490) - https://sketchapp.com -->
    <title>Search-Red</title>
    <desc>Created with Sketch.</desc>
    <defs>
        <polygon id="path-1" points="1 1 7 1 7 7 1 7"></polygon>
    </defs>
    <g id="Search-Red" stroke="none" stroke-width="1" fill="none" fill-rule="evenodd">
        <g id="Group-7" transform="translate(5.000000, 5.000000)">
            <g id="Group-3" transform="translate(9.000000, 9.000000)">
                <mask id="mask-2" fill="white">
                    <use xlink:href="#path-1"></use>
                </mask>
                <g id="Clip-2"></g>
                <path d="M6.50685944,7 C6.38067855,7 6.25449766,6.95170034 6.15789041,6.85608674 L1.14417153,1.84179399 C0.951942824,1.64859537 0.951942824,1.33711188 1.14417153,1.14489897 C1.33640023,0.951700345 1.6488951,0.951700345 1.8411238,1.14489897 L6.85582847,6.15820601 C7.04805718,6.35140463 7.04805718,6.66288812 6.85582847,6.85608674 C6.75922123,6.95170034 6.63304034,7 6.50685944,7" id="Fill-1" fill="#D12420" mask="url(#mask-2)"></path>
            </g>
            <g id="Group-6" fill="#D12420">
                <path d="M6.239,1 C3.35,1 1,3.35 1,6.238 C1,9.127 3.35,11.478 6.239,11.478 C9.128,11.478 11.478,9.127 11.478,6.238 C11.478,3.35 9.128,1 6.239,1 M6.239,12.478 C2.799,12.478 0,9.679 0,6.238 C0,2.799 2.799,0 6.239,0 C9.679,0 12.478,2.799 12.478,6.238 C12.478,9.679 9.679,12.478 6.239,12.478" id="Fill-4"></path>
            </g>
        </g>
    </g>
</svg>