<?xml version="1.0" encoding="UTF-8"?>
<svg width="25px" height="25px" viewBox="0 0 25 25" version="1.1" xmlns="http://www.w3.org/2000/svg" xmlns:xlink="http://www.w3.org/1999/xlink">
    <!-- Generator: Sketch 54.1 (76490) - https://sketchapp.com -->
    <title>Search-BW</title>
    <desc>Created with Sketch.</desc>
    <defs>
        <polygon id="path-1" points="0 0 6 0 6 6 0 6"></polygon>
    </defs>
    <g id="Search-BW" stroke="none" stroke-width="1" fill="none" fill-rule="evenodd">
        <g id="Group-7" transform="translate(5.000000, 5.000000)">
            <g id="Group-3" transform="translate(10.000000, 10.000000)">
                <mask id="mask-2" fill="white">
                    <use xlink:href="#path-1"></use>
                </mask>
                <g id="Clip-2"></g>
                <path d="M5.50685944,6 C5.38067855,6 5.25449766,5.95170034 5.15789041,5.85608674 L0.144171527,0.841793987 C-0.0480571757,0.648595367 -0.0480571757,0.337111878 0.144171527,0.144898965 C0.33640023,-0.048299655 0.648895096,-0.048299655 0.841123799,0.144898965 L5.85582847,5.15820601 C6.04805718,5.35140463 6.04805718,5.66288812 5.85582847,5.85608674 C5.75922123,5.95170034 5.63304034,6 5.50685944,6" id="Fill-1" fill="#FFFFFF" mask="url(#mask-2)"></path>
            </g>
            <g id="Group-6" fill="#FFFFFF">
                <path d="M6.239,1 C3.35,1 1,3.35 1,6.238 C1,9.127 3.35,11.478 6.239,11.478 C9.128,11.478 11.478,9.127 11.478,6.238 C11.478,3.35 9.128,1 6.239,1 M6.239,12.478 C2.799,12.478 0,9.679 0,6.238 C0,2.799 2.799,0 6.239,0 C9.679,0 12.478,2.799 12.478,6.238 C12.478,9.679 9.679,12.478 6.239,12.478" id="Fill-4"></path>
            </g>
        </g>
    </g>
</svg>