<svg width="25" height="25" viewBox="0 0 25 25" fill="none" xmlns="http://www.w3.org/2000/svg">
<path d="M16.5 15.1141V23.5H7.5V15.1141C7.5 12.5705 9.52051 10.5 12 10.5C14.4804 10.5 16.5 12.57 16.5 15.1141Z" stroke="#D12420"/>
<path d="M12 9C11.2089 9 10.4355 8.7654 9.77772 8.32588C9.11992 7.88635 8.60723 7.26164 8.30448 6.53073C8.00173 5.79983 7.92252 4.99556 8.07686 4.21964C8.2312 3.44372 8.61216 2.73098 9.17157 2.17157C9.73098 1.61216 10.4437 1.2312 11.2196 1.07686C11.9956 0.92252 12.7998 1.00173 13.5307 1.30448C14.2616 1.60723 14.8864 2.11992 15.3259 2.77772C15.7654 3.43552 16 4.20888 16 5C16 6.06087 15.5786 7.07828 14.8284 7.82843C14.0783 8.57857 13.0609 9 12 9ZM12 2C11.4067 2 10.8266 2.17595 10.3333 2.50559C9.83994 2.83524 9.45543 3.30377 9.22836 3.85195C9.0013 4.40013 8.94189 5.00333 9.05765 5.58527C9.1734 6.16721 9.45912 6.70176 9.87868 7.12132C10.2982 7.54088 10.8328 7.8266 11.4147 7.94236C11.9967 8.05811 12.5999 7.9987 13.1481 7.77164C13.6962 7.54458 14.1648 7.16006 14.4944 6.66671C14.8241 6.17336 15 5.59334 15 5C15 4.20435 14.6839 3.44129 14.1213 2.87868C13.5587 2.31607 12.7957 2 12 2Z" fill="#D12421"/>
</svg>
