<?xml version="1.0" encoding="UTF-8"?>
<svg width="36px" height="25px" viewBox="0 0 36 25" version="1.1" xmlns="http://www.w3.org/2000/svg" xmlns:xlink="http://www.w3.org/1999/xlink">
    <!-- Generator: Sketch 54.1 (76490) - https://sketchapp.com -->
    <title>white/American Express </title>
    <desc>Created with Sketch.</desc>
    <g id="Symbols" stroke="none" stroke-width="1" fill="none" fill-rule="evenodd">
        <g id="BankPayments" transform="translate(-123.000000, -23.000000)">
            <g id="Group-5" transform="translate(0.000000, 23.000000)">
                <g id="Icon/white/American-Express-" transform="translate(123.000000, 0.000000)">
                    <g id="American-Express-">
                        <path d="M0,2.99075223 C0,1.33900538 1.34553934,0 3.00741988,0 L32.9925801,0 C34.6535323,0 36,1.34410858 36,2.99075223 L36,22.0092478 C36,23.6609946 34.6544607,25 32.9925801,25 L3.00741988,25 C1.34646775,25 0,23.6558914 0,22.0092478 L0,2.99075223 Z" id="Rectangle-Copy-4" fill="#016FD0"></path>
                        <g id="American_Express_logo_(2018)" transform="translate(0.000000, 5.978261)">
                            <path d="M6.99305928,12.9294912 L6.99305928,7.35282911 L12.9506738,7.35282911 L13.5898613,8.17868105 L14.250185,7.35282911 L35.8748551,7.35282911 L35.8748551,12.5448955 C35.8748551,12.5448955 35.3093317,12.9239148 34.6552778,12.9294912 L22.6812517,12.9294912 L21.9605928,12.0504113 L21.9605928,12.9294912 L19.5990485,12.9294912 L19.5990485,11.4288751 C19.5990485,11.4288751 19.276458,11.6383435 18.5790392,11.6383435 L17.7752271,11.6383435 L17.7752271,12.9294912 L14.1996496,12.9294912 L13.5613753,12.0859274 L12.913301,12.9294912 L6.99305928,12.9294912 Z" id="path3082" fill="#FFFFFF"></path>
                            <path d="M0.0359281437,3.14973115 L1.37939371,0.0454830324 L3.70277713,0.0454830324 L4.46520934,1.78435708 L4.46520934,0.0454830324 L7.3533891,0.0454830324 L7.80726539,1.30228964 L8.24728311,0.0454830324 L21.212216,0.0454830324 L21.212216,0.677320799 C21.212216,0.677320799 21.8937711,0.0454830324 23.0138637,0.0454830324 L27.2205101,0.0600541253 L27.9697804,1.77617064 L27.9697804,0.0454830324 L30.3867596,0.0454830324 L31.0519836,1.03125378 L31.0519836,0.0454830324 L33.491137,0.0454830324 L33.491137,5.62214151 L31.0519836,5.62214151 L30.4144775,4.63317665 L30.4144775,5.62214151 L26.863399,5.62214151 L26.506288,4.74306164 L25.5516384,4.74306164 L25.2003399,5.62214151 L22.7921224,5.62214151 C21.828318,5.62214151 21.212216,5.00320479 21.212216,5.00320479 L21.212216,5.62214151 L17.5812036,5.62214151 L16.8605443,4.74306164 L16.8605443,5.62214151 L3.35858192,5.62214151 L3.00171701,4.74306164 L2.05011162,4.74306164 L1.69576886,5.62214151 L0.0359281437,5.62214151 L0.0359281437,3.14973115 Z" id="path3080" fill="#FFFFFF"></path>
                            <path d="M1.85489928,0.732966563 L0.0428575689,4.90859239 L1.22259022,4.90859239 L1.55693443,4.0724424 L3.50063497,4.0724424 L3.83324695,4.90859239 L5.03896491,4.90859239 L3.22865533,0.732966563 L1.85489928,0.732966563 Z M2.52531988,1.70476089 L3.11778503,3.1658904 L1.93112263,3.1658904 L2.52531988,1.70476089 L2.52531988,1.70476089 Z" id="path3046" fill="#016FD0" fill-rule="nonzero"></path>
                            <polygon id="path3048" fill="#016FD0" points="5.16369413 4.90789089 5.16369413 0.732261511 6.84015988 0.738432504 7.81524934 3.43061283 8.76698946 0.732261511 10.4300486 0.732261511 10.4300486 4.90789089 9.37677772 4.90789089 9.37677772 1.83111135 8.26028838 4.90789089 7.33656754 4.90789089 6.21696503 1.83111135 6.21696503 4.90789089"></polygon>
                            <polygon id="path3050" fill="#016FD0" points="11.1507075 4.90789089 11.1507075 0.732261511 14.5876969 0.732261511 14.5876969 1.66628565 12.2150655 1.66628565 12.2150655 2.38053627 14.5322616 2.38053627 14.5322616 3.25961614 12.2150655 3.25961614 12.2150655 4.00133889 14.5876969 4.00133889 14.5876969 4.90789089"></polygon>
                            <path d="M15.1974851,0.732966563 L15.1974851,4.90859239 L16.250756,4.90859239 L16.250756,3.42514689 L16.6942383,3.42514689 L17.9571241,4.90859239 L19.2442628,4.90859239 L17.8583799,3.37020617 C18.4271547,3.32263647 19.0138595,2.8388064 19.0138595,2.08764377 C19.0138595,1.20894491 18.3179935,0.732966563 17.5413593,0.732966563 L15.1974851,0.732966563 L15.1974851,0.732966563 Z M16.250756,1.66698715 L17.4547416,1.66698715 C17.7435611,1.66698715 17.9536595,1.89090197 17.9536595,2.10652708 C17.9536595,2.3839369 17.6814417,2.54606702 17.4703329,2.54606702 L16.250756,2.54606702 L16.250756,1.66698715 L16.250756,1.66698715 Z" id="path3052" fill="#016FD0" fill-rule="nonzero"></path>
                            <polygon id="path3054" fill="#016FD0" points="20.519275 4.90789089 19.4438299 4.90789089 19.4438299 0.732261511 20.519275 0.732261511"></polygon>
                            <path d="M23.069299,4.90789089 L22.8371637,4.90789089 C21.7139881,4.90789089 21.0320515,4.03087633 21.0320515,2.83724673 C21.0320515,1.61412954 21.7063531,0.732261511 23.1247344,0.732261511 L24.2888759,0.732261511 L24.2888759,1.72122636 L23.0821728,1.72122636 C22.5063884,1.72122636 22.099181,2.16657408 22.099181,2.84754834 C22.099181,3.65620838 22.564805,3.99584446 23.235605,3.99584446 L23.5127813,3.99584446 L23.069299,4.90789089 Z" id="path3056" fill="#016FD0"></path>
                            <path d="M25.3612024,0.732966563 L23.5491611,4.90859239 L24.7288937,4.90859239 L25.0632377,4.0724424 L27.0069384,4.0724424 L27.3395501,4.90859239 L28.545268,4.90859239 L26.7349588,0.732966563 L25.3612024,0.732966563 Z M26.0316234,1.70476089 L26.6240881,3.1658904 L25.4374261,3.1658904 L26.0316234,1.70476089 Z" id="path3058" fill="#016FD0" fill-rule="nonzero"></path>
                            <polygon id="path3060" fill="#016FD0" points="28.6682651 4.90789089 28.6682651 0.732261511 30.0073743 0.732261511 31.7172072 3.35576683 31.7172072 0.732261511 32.7704781 0.732261511 32.7704781 4.90789089 31.4746778 4.90789089 29.721536 2.21571057 29.721536 4.90789089"></polygon>
                            <polygon id="path3062" fill="#016FD0" points="7.71371856 12.2152405 7.71371856 8.03961115 11.1507075 8.03961115 11.1507075 8.9736353 8.77807653 8.9736353 8.77807653 9.68788591 11.0952722 9.68788591 11.0952722 10.5669658 8.77807653 10.5669658 8.77807653 11.3086885 11.1507075 11.3086885 11.1507075 12.2152405"></polygon>
                            <polygon id="path3064" fill="#016FD0" points="24.5549651 12.2152405 24.5549651 8.03961115 27.9919545 8.03961115 27.9919545 8.9736353 25.6193231 8.9736353 25.6193231 9.68788591 27.9254321 9.68788591 27.9254321 10.5669658 25.6193231 10.5669658 25.6193231 11.3086885 27.9919545 11.3086885 27.9919545 12.2152405"></polygon>
                            <polygon id="path3066" fill="#016FD0" points="11.2840987 12.2152405 12.9575522 10.1531781 11.2442547 8.03961115 12.5712374 8.03961115 13.5915934 9.34620945 14.6154144 8.03961115 15.8904266 8.03961115 14.1996496 10.1274258 15.8761836 12.2152405 14.5494108 12.2152405 13.5586789 10.9292383 12.5920257 12.2152405"></polygon>
                            <path d="M16.0012972,8.04031621 L16.0012972,12.215942 L17.0822856,12.215942 L17.0822856,10.8973222 L18.1909919,10.8973222 C19.1291141,10.8973222 19.8401921,10.4040558 19.8401921,9.44478154 C19.8401921,8.65012285 19.2824899,8.04031621 18.3278479,8.04031621 L16.0012972,8.04031621 L16.0012972,8.04031621 Z M17.0822856,8.98463839 L18.2498917,8.98463839 C18.5529622,8.98463839 18.7695977,9.16873909 18.7695977,9.46538475 C18.7695977,9.7440658 18.5540558,9.94613111 18.2464272,9.94613111 L17.0822856,9.94613111 L17.0822856,8.98463839 Z" id="path3068" fill="#016FD0" fill-rule="nonzero"></path>
                            <path d="M20.2975337,8.03961115 L20.2975337,12.2152405 L21.3508046,12.2152405 L21.3508046,10.7317915 L21.7942868,10.7317915 L23.0571726,12.2152405 L24.3443113,12.2152405 L22.9584284,10.6768508 C23.5272029,10.6292739 24.113908,10.145451 24.113908,9.3942848 C24.113908,8.5155895 23.418042,8.03961115 22.6414078,8.03961115 L20.2975337,8.03961115 L20.2975337,8.03961115 Z M21.3508046,8.9736353 L22.5547901,8.9736353 C22.8436096,8.9736353 23.0537077,9.19754656 23.0537077,9.41317167 C23.0537077,9.69058505 22.7814898,9.8527116 22.5703811,9.8527116 L21.3508046,9.8527116 L21.3508046,8.9736353 L21.3508046,8.9736353 Z" id="path3072" fill="#016FD0" fill-rule="nonzero"></path>
                            <path d="M28.479785,12.2152405 L28.479785,11.3086885 L30.5877129,11.3086885 C30.8996105,11.3086885 31.0346601,11.1416409 31.0346601,10.9584304 C31.0346601,10.7828936 30.9000363,10.6054268 30.5877129,10.6054268 L29.6351644,10.6054268 C28.8071749,10.6054268 28.3460475,10.1054481 28.3460475,9.35479828 C28.3460475,8.68527223 28.7683283,8.03961115 29.9987127,8.03961115 L32.0498192,8.03961115 L31.6063365,8.97912616 L29.8324067,8.97912616 C29.4933093,8.97912616 29.3889241,9.15548196 29.3889241,9.32389346 C29.3889241,9.49699462 29.517919,9.68788591 29.7769714,9.68788591 L30.7748069,9.68788591 C31.6978114,9.68788591 32.098325,10.2067906 32.098325,10.8863191 C32.098325,11.6168785 31.6520213,12.2152405 30.72456,12.2152405 L28.479785,12.2152405 Z" id="path3074" fill="#016FD0"></path>
                            <path d="M32.3455322,12.2152405 L32.3455322,11.3086885 L34.4534587,11.3086885 C34.7653581,11.3086885 34.9004084,11.1416409 34.9004084,10.9584304 C34.9004084,10.7828936 34.765782,10.6054268 34.4534587,10.6054268 L33.5009116,10.6054268 C32.672922,10.6054268 32.2117944,10.1054481 32.2117944,9.35479828 C32.2117944,8.68527223 32.6340751,8.03961115 33.8644595,8.03961115 L35.9155653,8.03961115 L35.4720826,8.97912616 L33.6981535,8.97912616 C33.3590565,8.97912616 33.2546713,9.15548196 33.2546713,9.32389346 C33.2546713,9.49699462 33.3836659,9.68788591 33.6427182,9.68788591 L34.6405545,9.68788591 C35.5635593,9.68788591 35.9640719,10.2067906 35.9640719,10.8863191 C35.9640719,11.6168785 35.5177689,12.2152405 34.5903054,12.2152405 L32.3455322,12.2152405 Z" id="path3076" fill="#016FD0"></path>
                        </g>
                    </g>
                </g>
            </g>
        </g>
    </g>
</svg>