<?xml version="1.0" encoding="UTF-8"?>
<svg width="35px" height="25px" viewBox="0 0 35 25" version="1.1" xmlns="http://www.w3.org/2000/svg" xmlns:xlink="http://www.w3.org/1999/xlink">
    <!-- Generator: Sketch 54.1 (76490) - https://sketchapp.com -->
    <title>white/Mastercard </title>
    <desc>Created with Sketch.</desc>
    <g id="Symbols" stroke="none" stroke-width="1" fill="none" fill-rule="evenodd">
        <g id="BankPayments" transform="translate(-41.000000, -23.000000)">
            <g id="Group-5" transform="translate(0.000000, 23.000000)">
                <g id="Icon/white/Mastercard-" transform="translate(41.000000, 0.000000)">
                    <g id="Mastercard-">
                        <path d="M0.5,2.99075223 L0.5,22.0092478 C0.5,23.3813271 1.62051601,24.5 2.99921059,24.5 L32.0007894,24.5 C33.3764728,24.5 34.5,23.3816512 34.5,22.0092478 L34.5,2.99075223 C34.5,1.61867288 33.379484,0.5 32.0007894,0.5 L2.99921059,0.5 C1.62352723,0.5 0.5,1.61834879 0.5,2.99075223 Z" id="Rectangle-Copy-4" stroke="#E6E7E8" fill="#FFFFFF"></path>
                        <g id="mc_symbol" transform="translate(6.893939, 5.434783)">
                            <g id="Group" opacity="0" fill="#FFFFFF">
                                <rect id="Rectangle" x="0" y="0" width="21.1140955" height="14.1141929"></rect>
                            </g>
                            <rect id="Rectangle" fill="#FF5F00" x="7.77295684" y="2.45902049" width="5.5697888" height="9.19452774"></rect>
                            <path d="M8.3466483,7.05709645 C8.3452498,5.26318115 9.16003814,3.56823992 10.5562443,2.46064468 C8.18430974,0.576595117 4.77811665,0.851023228 2.73144594,3.09106831 C0.684775236,5.33111339 0.684775236,8.7847037 2.73144594,11.0247488 C4.77811665,13.2647939 8.18430974,13.539222 10.5562443,11.6551724 C9.15959382,10.5472254 8.3447557,8.85158172 8.3466483,7.05709645 Z" id="Path" fill="#EB001B"></path>
                            <path d="M19.483214,11.3017582 L19.483214,10.5987279 L19.6498806,10.5987279 L19.6498806,10.4532734 L19.253214,10.4532734 L19.253214,10.5987279 L19.4098806,10.5987279 L19.4098806,11.3017582 L19.483214,11.3017582 Z M20.253214,11.3017582 L20.253214,10.4532734 L20.133214,10.4532734 L19.993214,11.059334 L19.853214,10.4532734 L19.733214,10.4532734 L19.733214,11.3017582 L19.8198806,11.3017582 L19.8198806,10.659334 L19.9498806,11.2108491 L20.0398806,11.2108491 L20.1698806,10.659334 L20.1698806,11.3017582 L20.253214,11.3017582 Z" id="Shape" fill="#F79E1B" fill-rule="nonzero"></path>
                            <path d="M19.9168962,7.05709645 C19.9168446,9.29577642 18.6521108,11.3379117 16.6598321,12.3161997 C14.6675534,13.2944876 12.2975007,13.0371768 10.5562443,11.6535482 C11.9518412,10.5450127 12.7666908,8.85029678 12.7666908,7.05628436 C12.7666908,5.26227193 11.9518412,3.56755605 10.5562443,2.45902049 C12.2975007,1.07539189 14.6675534,0.818081128 16.6598321,1.79636906 C18.6521108,2.77465699 19.9168446,4.81679229 19.9168962,7.05547226 L19.9168962,7.05709645 Z" id="Path" fill="#F79E1B"></path>
                        </g>
                    </g>
                </g>
            </g>
        </g>
    </g>
</svg>