<?xml version="1.0" encoding="UTF-8"?>
<svg width="36px" height="25px" viewBox="0 0 36 25" version="1.1" xmlns="http://www.w3.org/2000/svg" xmlns:xlink="http://www.w3.org/1999/xlink">
    <!-- Generator: Sketch 54.1 (76490) - https://sketchapp.com -->
    <title>white/Pay Pal </title>
    <desc>Created with Sketch.</desc>
    <g id="Symbols" stroke="none" stroke-width="1" fill="none" fill-rule="evenodd">
        <g id="BankPayments" transform="translate(0.000000, -23.000000)">
            <g id="Group-5" transform="translate(0.000000, 23.000000)">
                <g id="Icon/white/Pay-Pal-">
                    <g id="Pay-Pal-">
                        <path d="M0.5,2.99075223 L0.5,22.0092478 C0.5,23.3810202 1.62389134,24.5 3.00741988,24.5 L32.9925801,24.5 C34.3785941,24.5 35.5,23.3845712 35.5,22.0092478 L35.5,2.99075223 C35.5,1.61897985 34.3761087,0.5 32.9925801,0.5 L3.00741988,0.5 C1.62140595,0.5 0.5,1.61542877 0.5,2.99075223 Z" id="Rectangle-Copy-4" stroke="#E6E7E8" fill="#FFFFFF"></path>
                        <path d="M15.5137794,6.52173913 L19.2360086,6.52173913 C20.2843522,6.52173913 21.5277186,6.55568709 22.3595408,7.28657231 C22.9151447,7.77484916 23.2067192,8.55278339 23.1393442,9.38790319 C22.9111137,12.2198324 21.2109985,13.806015 18.9311895,13.806015 L17.0953645,13.806015 C16.7829633,13.806015 16.5758476,14.0122847 16.4877418,14.5710394 L15.975423,17.8179944 C15.9422154,18.028663 15.8505585,18.1527882 15.6832727,18.1678018 L13.390315,18.1678018 C13.1358832,18.1678018 13.045474,17.9738681 13.1119852,17.5538697 L14.7631528,7.13787069 C14.8292801,6.72045423 15.0584703,6.52173913 15.5137794,6.52173913" id="Fill-1" fill="#1B3D92"></path>
                        <path d="M17.9076223,9.7826087 L21.6261084,9.7826087 C23.6224049,9.7826087 24.3740873,10.7894765 24.2580526,12.2712332 C24.0666769,14.7138606 22.5844267,16.0645113 20.6184586,16.0645113 L19.6257809,16.0645113 C19.3563769,16.0645113 19.1750786,16.2419969 19.1016571,16.7243448 L18.6759085,19.5245255 C18.6482675,19.7064101 18.5522917,19.8132266 18.4080401,19.826232 L16.0764041,19.826232 C15.8570035,19.826232 15.7789752,19.6589786 15.8363687,19.2967395 L17.2602655,10.3140138 C17.3172752,9.95397417 17.5148893,9.7826087 17.9076223,9.7826087" id="Fill-1" fill="#00A2D3"></path>
                        <path d="M16.3636364,14.4132347 L17.0135844,10.3139469 C17.07069,9.95400286 17.2684002,9.78263738 17.6611331,9.78263738 L21.3796192,9.78263738 C21.995208,9.78263738 22.4924586,9.87836107 22.8822163,10.0546992 C22.5085825,12.5751678 20.8724832,13.9755451 18.7301115,13.9755451 L16.8941905,13.9755451 C16.6526195,13.9755451 16.472089,14.0986184 16.3636364,14.4132347" id="Page-1" fill="#1B2E7F"></path>
                    </g>
                </g>
            </g>
        </g>
    </g>
</svg>