<?xml version="1.0" encoding="UTF-8"?>
<svg width="36px" height="25px" viewBox="0 0 36 25" version="1.1" xmlns="http://www.w3.org/2000/svg" xmlns:xlink="http://www.w3.org/1999/xlink">
    <!-- Generator: Sketch 54.1 (76490) - https://sketchapp.com -->
    <title>white/Visa</title>
    <desc>Created with Sketch.</desc>
    <g id="Symbols" stroke="none" stroke-width="1" fill="none" fill-rule="evenodd">
        <g id="BankPayments" transform="translate(-82.000000, -23.000000)">
            <g id="Group-5" transform="translate(0.000000, 23.000000)">
                <g id="Icon/white/Visa" transform="translate(82.000000, 0.000000)">
                    <g id="Visa-">
                        <path d="M0.5,2.99075223 L0.5,22.0092478 C0.5,23.3810202 1.62389134,24.5 3.00741988,24.5 L32.9925801,24.5 C34.3785941,24.5 35.5,23.3845712 35.5,22.0092478 L35.5,2.99075223 C35.5,1.61897985 34.3761087,0.5 32.9925801,0.5 L3.00741988,0.5 C1.62140595,0.5 0.5,1.61542877 0.5,2.99075223 Z" id="Rectangle-Copy-4" stroke="#E6E7E8" fill="#FFFFFF"></path>
                        <g id="Visa_Inc._logo" transform="translate(6.000000, 8.695652)" fill="#0742A6">
                            <polygon id="polygon9" points="10.375824 7.46956078 8.44508153 7.46956078 9.65270619 0.223845922 11.5833431 0.223845922"></polygon>
                            <path d="M17.3749369,0.400982976 C16.9941097,0.254376195 16.3900862,0.0925042782 15.6432129,0.0925042782 C13.7365427,0.0925042782 12.3938811,1.07910337 12.3856459,2.48964296 C12.3698089,3.53033596 13.3469523,4.10836213 14.0777774,4.45536225 C14.8247563,4.80994371 15.0786763,5.04137957 15.0786763,5.35743961 C15.0710746,5.84285046 14.4750752,6.06660253 13.9191962,6.06660253 C13.1483562,6.06660253 12.735327,5.95124317 12.1076536,5.68118344 L11.8534168,5.56541429 L11.5832375,7.1919197 C12.0360703,7.39210814 12.8703639,7.56975744 13.7365427,7.57754369 C15.7624128,7.57754369 17.0813188,6.60620973 17.0969446,5.10305482 C17.104652,4.27822519 16.5886823,3.64620756 15.4762908,3.12975419 C14.8010008,2.79822411 14.3874437,2.57467694 14.3874437,2.23546307 C14.3953622,1.92708682 14.7372304,1.61123168 15.4995184,1.61123168 C16.1271918,1.59576165 16.5883655,1.74216353 16.9377299,1.88866786 L17.1123593,1.96560824 L17.3749369,0.400982976 L17.3749369,0.400982976 L17.3749369,0.400982976 Z" id="path11"></path>
                            <path d="M19.9410601,4.90266148 C20.1000637,4.48640477 20.7119001,2.8753694 20.7119001,2.8753694 C20.703876,2.89083943 20.8705869,2.45142889 20.9659257,2.18167652 L21.100857,2.80601035 C21.100857,2.80601035 21.4664808,4.54039623 21.545877,4.90266148 C21.2441292,4.90266148 20.3224153,4.90266148 19.9410601,4.90266148 L19.9410601,4.90266148 Z M22.3243187,0.223845922 L20.8308888,0.223845922 C20.3703486,0.223845922 20.0204563,0.354777764 19.8217547,0.825025929 L16.9538837,7.46945833 L18.9797537,7.46945833 C18.9797537,7.46945833 19.3132811,6.57516721 19.38497,6.38256012 C19.607216,6.38256012 21.5779733,6.38256012 21.8638841,6.38256012 C21.9193136,6.63694491 22.0942598,7.46945833 22.0942598,7.46945833 L23.8819412,7.46945833 L22.3243187,0.223845922 L22.3243187,0.223845922 L22.3243187,0.223845922 Z" id="path13" fill-rule="nonzero"></path>
                            <path d="M6.83245179,0.223845922 L4.9416186,5.16473007 L4.73499844,4.16266094 C4.38542288,3.00640369 3.2890796,1.75015467 2.06561793,1.12551348 L3.79755314,7.46187698 L5.83926022,7.46187698 L8.87405329,0.223845922 L6.83245179,0.223845922 L6.83245179,0.223845922 L6.83245179,0.223845922 Z" id="path15"></path>
                            <path d="M3.1858223,0.223845922 L0.0794459538,0.223845922 L0.0476663575,0.370247802 C2.47083418,0.971530259 4.075651,2.42089862 4.73499844,4.16296829 L4.05970841,0.832914623 C3.94853261,0.370145351 3.60687556,0.239111059 3.1858223,0.223845922 L3.1858223,0.223845922 Z" id="path17"></path>
                        </g>
                    </g>
                </g>
            </g>
        </g>
    </g>
</svg>