<svg id="Livello_1" data-name="Livello 1" xmlns="http://www.w3.org/2000/svg" viewBox="0 0 32 32"><defs><style>.cls-1,.cls-2{fill:none;}.cls-2{stroke:#65676b;stroke-linecap:round;stroke-linejoin:round;stroke-width:1.2px;}.cls-3{fill:#e20e18;}</style></defs><rect class="cls-1" width="32" height="32"/><path class="cls-2" d="M209.83,410.06H197.42v-1.87a.79.79,0,0,1,.2-.53l.63-.41h11.58" transform="translate(-193.79 -382.44)"/><path class="cls-2" d="M198.18,407.16l1.09-17.65a1.59,1.59,0,0,1,1-1.37l3.19-1.31h12.72l3.19,1.31a1.61,1.61,0,0,1,1,1.37l1.08,17.65" transform="translate(-193.79 -382.44)"/><line class="cls-2" x1="5.4" y1="10.25" x2="26.51" y2="10.25"/><path class="cls-2" d="M209.75,410.06h12.41v-1.87a.79.79,0,0,0-.2-.53l-.63-.41H209.75" transform="translate(-193.79 -382.44)"/><rect class="cls-3" x="12.61" y="12.47" width="6.8" height="6.8"/></svg>