<svg id="Livello_1" data-name="Livello 1" xmlns="http://www.w3.org/2000/svg" viewBox="0 0 32 32"><defs><style>.cls-1,.cls-2,.cls-3,.cls-4{fill:none;}.cls-2,.cls-4{stroke:#65676b;}.cls-2,.cls-3,.cls-4{stroke-linecap:round;stroke-width:1.2px;}.cls-3{stroke:#e3131b;}.cls-4{stroke-linejoin:round;}</style></defs><rect class="cls-1" width="32" height="32"/><path class="cls-2" d="M329.2,402.36h16.72a.45.45,0,0,1,.44.31l5.19,15a.46.46,0,0,1-.44.62H324.35a.46.46,0,0,1-.44-.61l4.84-15A.47.47,0,0,1,329.2,402.36Z" transform="translate(-321.73 -390.33)"/><line class="cls-2" x1="12.61" y1="11.55" x2="12.61" y2="8.41"/><line class="cls-2" x1="19.39" y1="11.55" x2="19.39" y2="8.41"/><circle class="cls-3" cx="16.12" cy="20.01" r="5.82"/><line class="cls-3" x1="16.12" y1="20.01" x2="16.12" y2="15.7"/><path class="cls-4" d="M327.15,394.33a14.63,14.63,0,0,0,21.17,0Z" transform="translate(-321.73 -390.33)"/></svg>